{
  "accessors": [
    {
      "bufferView": 2,
      "componentType": 5126,
      "count": 4,
      "max": [
        167.02890014648438,
        167.02890014648438,
        0.0
      ],
      "min": [
        -167.02890014648438,
        -167.02890014648438,
        0.0
      ],
      "type": "VEC3"
    },
    {
      "bufferView": 2,
      "byteOffset": 48,
      "componentType": 5126,
      "count": 4,
      "max": [
        0.0,
        0.0,
        1.0
      ],
      "min": [
        0.0,
        0.0,
        1.0
      ],
      "type": "VEC3"
    },
    {
      "bufferView": 1,
      "componentType": 5126,
      "count": 4,
      "max": [
        1.0,
        1.0
      ],
      "min": [
        2.98022992950564e-08,
        2.98022992950564e-08
      ],
      "type": "VEC2"
    },
    {
      "bufferView": 0,
      "componentType": 5125,
      "count": 6,
      "type": "SCALAR"
    },
    {
      "bufferView": 2,
      "byteOffset": 96,
      "componentType": 5126,
      "count": 1610,
      "max": [
        44.867801666259766,
        -12.323060035705566,
        59.73455047607422
      ],
      "min": [
        -3.1956870555877686,
        -27.990699768066406,
        -115.60780334472656
      ],
      "type": "VEC3"
    },
    {
      "bufferView": 2,
      "byteOffset": 19416,
      "componentType": 5126,
      "count": 1610,
      "max": [
        0.9996134042739868,
        1.0,
        0.9993085265159607
      ],
      "min": [
        -0.9996132850646973,
        -1.0,
        -0.9993090033531189
      ],
      "type": "VEC3"
    },
    {
      "bufferView": 1,
      "byteOffset": 32,
      "componentType": 5126,
      "count": 1610,
      "max": [
        0.9861559271812439,
        0.926967978477478
      ],
      "min": [
        0.6853479743003845,
        0.7703943848609924
      ],
      "type": "VEC2"
    },
    {
      "bufferView": 0,
      "byteOffset": 24,
      "componentType": 5125,
      "count": 4788,
      "type": "SCALAR"
    },
    {
      "bufferView": 2,
      "byteOffset": 38736,
      "componentType": 5126,
      "count": 1228,
      "max": [
        44.871910095214844,
        -27.599449157714844,
        59.14493179321289
      ],
      "min": [
        -3.1998000144958496,
        -28.193199157714844,
        -115.01809692382813
      ],
      "type": "VEC3"
    },
    {
      "bufferView": 2,
      "byteOffset": 53472,
      "componentType": 5126,
      "count": 1228,
      "max": [
        0.984812319278717,
        1.0,
        1.0
      ],
      "min": [
        -0.9848107099533081,
        -1.0,
        -1.0
      ],
      "type": "VEC3"
    },
    {
      "bufferView": 1,
      "byteOffset": 12912,
      "componentType": 5126,
      "count": 1228,
      "max": [
        0.9933326244354248,
        0.9463191032409668
      ],
      "min": [
        0.6674433946609497,
        0.0005000000237487257
      ],
      "type": "VEC2"
    },
    {
      "bufferView": 0,
      "byteOffset": 19176,
      "componentType": 5125,
      "count": 2592,
      "type": "SCALAR"
    },
    {
      "bufferView": 2,
      "byteOffset": 68208,
      "componentType": 5126,
      "count": 2581,
      "max": [
        46.86214065551758,
        51.989620208740234,
        61.23297882080078
      ],
      "min": [
        -5.3265299797058105,
        -28.15195083618164,
        -117.16950225830078
      ],
      "type": "VEC3"
    },
    {
      "bufferView": 2,
      "byteOffset": 99180,
      "componentType": 5126,
      "count": 2581,
      "max": [
        1.0,
        1.0,
        1.0
      ],
      "min": [
        -1.0,
        -1.0,
        -1.0
      ],
      "type": "VEC3"
    },
    {
      "bufferView": 1,
      "byteOffset": 22736,
      "componentType": 5126,
      "count": 2581,
      "max": [
        0.9964265823364258,
        0.9994999766349792
      ],
      "min": [
        0.0005000000237487257,
        0.0005000000237487257
      ],
      "type": "VEC2"
    },
    {
      "bufferView": 0,
      "byteOffset": 29544,
      "componentType": 5125,
      "count": 7056,
      "type": "SCALAR"
    }
  ],
  "asset": {
    "extras": {
      "author": "MADE.COM (https://sketchfab.com/made-it)",
      "license": "CC-BY-NC-4.0 (http://creativecommons.org/licenses/by-nc/4.0/)",
      "source": "https://sketchfab.com/3d-models/elona-wide-chest-of-drawers-grey-and-copper-9e87108167054239b57908fbe9f06871",
      "title": "Elona Wide Chest Of Drawers, Grey and Copper"
    },
    "generator": "Sketchfab-12.68.0",
    "version": "2.0"
  },
  "bufferViews": [
    {
      "buffer": 0,
      "byteLength": 57768,
      "name": "floatBufferViews",
      "target": 34963
    },
    {
      "buffer": 0,
      "byteLength": 43384,
      "byteOffset": 57768,
      "byteStride": 8,
      "name": "floatBufferViews",
      "target": 34962
    },
    {
      "buffer": 0,
      "byteLength": 130152,
      "byteOffset": 101152,
      "byteStride": 12,
      "name": "floatBufferViews",
      "target": 34962
    }
  ],
  "buffers": [
    {
      "byteLength": 231304,
      "uri": "scene.bin"
    }
  ],
  "images": [
    {
      "uri": "textures/CHROME_baseColor.jpeg"
    },
    {
      "uri": "textures/FLOOR_baseColor.png"
    }
  ],
  "materials": [
    {
      "doubleSided": true,
      "name": "CHROME",
      "pbrMetallicRoughness": {
        "baseColorTexture": {
          "index": 0
        },
        "roughnessFactor": 0.0992759146
      }
    },
    {
      "doubleSided": true,
      "name": "WHITE_PLASTIC",
      "pbrMetallicRoughness": {
        "baseColorTexture": {
          "index": 0
        },
        "metallicFactor": 0.0
      }
    },
    {
      "doubleSided": true,
      "name": "EnvironmentAmbientLight",
      "pbrMetallicRoughness": {
        "baseColorTexture": {
          "index": 0
        },
        "metallicFactor": 0.0,
        "roughnessFactor": 0.6480564024
      }
    },
    {
      "alphaMode": "BLEND",
      "doubleSided": true,
      "name": "FLOOR",
      "pbrMetallicRoughness": {
        "baseColorFactor": [
          0.0,
          0.0,
          0.0,
          1.0
        ],
        "baseColorTexture": {
          "index": 1
        },
        "metallicFactor": 0.0
      }
    }
  ],
  "meshes": [
    {
      "name": "FLOOR",
      "primitives": [
        {
          "attributes": {
            "NORMAL": 1,
            "POSITION": 0,
            "TEXCOORD_0": 2
          },
          "indices": 3,
          "material": 3,
          "mode": 4
        }
      ]
    },
    {
      "name": "CHROME",
      "primitives": [
        {
          "attributes": {
            "NORMAL": 5,
            "POSITION": 4,
            "TEXCOORD_0": 6
          },
          "indices": 7,
          "material": 0,
          "mode": 4
        }
      ]
    },
    {
      "name": "WHITE_PLASTIC",
      "primitives": [
        {
          "attributes": {
            "NORMAL": 9,
            "POSITION": 8,
            "TEXCOORD_0": 10
          },
          "indices": 11,
          "material": 1,
          "mode": 4
        }
      ]
    },
    {
      "name": "WHITE_GLOSS",
      "primitives": [
        {
          "attributes": {
            "NORMAL": 13,
            "POSITION": 12,
            "TEXCOORD_0": 14
          },
          "indices": 15,
          "material": 2,
          "mode": 4
        }
      ]
    }
  ],
  "nodes": [
    {
      "children": [
        1
      ],
      "matrix": [
        1.0,
        0.0,
        0.0,
        0.0,
        0.0,
        2.220446049250313e-16,
        -1.0,
        0.0,
        0.0,
        1.0,
        2.220446049250313e-16,
        0.0,
        0.0,
        1.4940000255592167e-05,
        3.3173464543328296e-21,
        1.0
      ],
      "name": "Sketchfab_model"
    },
    {
      "children": [
        2,
        4,
        10
      ],
      "name": "Collada visual scene group"
    },
    {
      "children": [
        3
      ],
      "matrix": [
        1.0,
        0.0,
        0.0,
        0.0,
        0.0,
        1.0,
        0.0,
        0.0,
        0.0,
        0.0,
        1.0,
        0.0,
        -0.8132934,
        0.9373176,
        0.0,
        1.0
      ],
      "name": "Plane001"
    },
    {
      "mesh": 0,
      "name": "FLOOR"
    },
    {
      "children": [
        5
      ],
      "matrix": [
        -4.37114e-08,
        1.0,
        -1.19209e-07,
        0.0,
        1.62921e-07,
        1.19209e-07,
        1.0,
        0.0,
        1.0,
        4.37114e-08,
        -1.62921e-07,
        0.0,
        -0.8132934,
        0.9373176,
        0.0,
        1.0
      ],
      "name": "Elona_Wide_Chest_of_Drawers_WhiteGloss"
    },
    {
      "children": [
        6
      ],
      "matrix": [
        0.8583846,
        7.10543e-15,
        2.4604e-15,
        0.0,
        7.10543e-15,
        0.8583846,
        0.0,
        0.0,
        3.20985e-15,
        0.0,
        0.8969731,
        0.0,
        1.050102,
        7.10543e-15,
        -0.8295785,
        1.0
      ],
      "name": "Elona_Wide_Chest_of_Drawers_WhiteGloss"
    },
    {
      "children": [
        7,
        8,
        9
      ],
      "matrix": [
        0.9999999,
        0.0,
        -2.73016e-15,
        0.0,
        0.0,
        0.9999999,
        0.0,
        0.0,
        2.53119e-15,
        0.0,
        0.9999999,
        0.0,
        -20.76781,
        28.15117,
        27.96827,
        1.0
      ],
      "name": "Elona_Wide_Chest_of_Drawers_WhiteGloss"
    },
    {
      "mesh": 1,
      "name": "CHROME"
    },
    {
      "mesh": 2,
      "name": "WHITE_PLASTIC"
    },
    {
      "mesh": 3,
      "name": "WHITE_GLOSS"
    },
    {
      "children": [
        11
      ],
      "name": "EnvironmentAmbientLight"
    },
    {
      "name": "EnvironmentAmbientLight"
    }
  ],
  "samplers": [
    {
      "magFilter": 9729,
      "minFilter": 9987,
      "wrapS": 10497,
      "wrapT": 10497
    }
  ],
  "scene": 0,
  "scenes": [
    {
      "name": "Sketchfab_Scene",
      "nodes": [
        0
      ]
    }
  ],
  "textures": [
    {
      "sampler": 0,
      "source": 0
    },
    {
      "sampler": 0,
      "source": 1
    }
  ]
}
